<?xml version="1.0" encoding="iso-8859-1"?>
<!-- Generator: Adobe Illustrator 19.0.0, SVG Export Plug-In . SVG Version: 6.00 Build 0)  -->
<svg version="1.1" id="Capa_1" xmlns="http://www.w3.org/2000/svg" xmlns:xlink="http://www.w3.org/1999/xlink" x="0px" y="0px"
	 viewBox="0 0 480 480" style="enable-background:new 0 0 480 480;" xml:space="preserve">
<g>
	<g>
		<path d="M416,0H64c-4.418,0-8,3.582-8,8v432c0,4.418,3.582,8,8,8h16v24c0,4.418,3.582,8,8,8h32c4.418,0,8-3.582,8-8v-24h224v24
			c0,4.418,3.582,8,8,8h32c4.418,0,8-3.582,8-8v-24h16c4.418,0,8-3.582,8-8V8C424,3.582,420.418,0,416,0z M112,464H96v-16h16V464z
			 M384,464h-16v-16h16V464z M408,432H72V16h336V432z"/>
	</g>
</g>
<g>
	<g>
		<path d="M384,64H96c-4.418,0-8,3.582-8,8v336c0,4.418,3.582,8,8,8h288c4.418,0,8-3.582,8-8V72C392,67.582,388.418,64,384,64z
			 M104,176h18.104c3.218,12.398,10.082,23.545,19.704,32H104V176z M220.608,176h8.592c-8.79,24.963-36.152,38.075-61.115,29.285
			c-13.694-4.822-24.463-15.591-29.285-29.285h62.96c-4.514,5.07-10.972,7.979-17.76,8v16
			C199.886,199.979,214.254,190.56,220.608,176z M245.896,176H267.6l-2.888,32h-38.52C235.814,199.545,242.678,188.398,245.896,176z
			 M160,160c0-13.255,10.745-24,24-24v-16c-22.08,0.026-39.974,17.92-40,40h-8c0-26.51,21.49-48,48-48c26.51,0,48,21.49,48,48H160z
			 M104,336h16v32h-16V336z M376,400H104v-16h272V400z M152,336v8c-0.012,10.168-6.418,19.229-16,22.632V336H152z M136,320v-62.632
			c9.582,3.403,15.988,12.464,16,22.632v40H136z M184,336v8c-0.012,10.168-6.418,19.229-16,22.632V344v-8H184z M168,320v-40v-22.632
			c9.582,3.403,15.988,12.464,16,22.632v40H168z M216,336v8c-0.012,10.168-6.418,19.229-16,22.632V344v-8H216z M200,320v-40v-22.632
			c9.582,3.403,15.988,12.464,16,22.632v40H200z M223.792,368c5.294-6.883,8.179-15.316,8.208-24v-8h16v32H223.792z M280,336v8
			c-0.012,10.168-6.418,19.229-16,22.632V336H280z M264,320v-30.632c9.582,3.403,15.988,12.464,16,22.632v8H264z M312,336v8
			c-0.012,10.168-6.418,19.229-16,22.632V344v-8H312z M296,320v-8v-22.632c9.582,3.403,15.988,12.464,16,22.632v8H296z M344,336v8
			c-0.012,10.168-6.418,19.229-16,22.632V344v-8H344z M328,320v-8v-22.632c9.582,3.403,15.988,12.464,16,22.632v8H328z M376,368
			h-24.208c5.294-6.883,8.179-15.316,8.208-24v-8h16V368z M376,320h-16v-8c-0.026-22.08-17.92-39.974-40-40c-4.418,0-8,3.582-8,8
			v0.208c-6.883-5.294-15.316-8.179-24-8.208c-4.418,0-8,3.582-8,8v0.208c-6.883-5.294-15.316-8.179-24-8.208c-4.418,0-8,3.582-8,8
			v40h-16v-40c-0.026-22.08-17.92-39.974-40-40c-4.418,0-8,3.582-8,8v0.208c-6.883-5.294-15.316-8.179-24-8.208
			c-4.418,0-8,3.582-8,8v0.208c-6.883-5.294-15.316-8.179-24-8.208c-4.418,0-8,3.582-8,8v72h-16v-96h168h104V320z M324.336,176
			l2.904,32H280.8l2.904-32H324.336z M285.136,160l2.184-24h33.392l2.184,24H285.136z M376,208h-32.68l-2.904-32H376V208z M376,160
			h-37.056L336,127.272c-0.378-4.132-3.851-7.289-8-7.272h-48c-4.149-0.017-7.622,3.14-8,7.272L269.056,160H248
			c0-35.346-28.654-64-64-64c-35.346,0-64,28.654-64,64h-16V80h272V160z"/>
	</g>
</g>
<g>
	<g>
		<rect x="328" y="32" width="16" height="16"/>
	</g>
</g>
<g>
	<g>
		<rect x="200" y="32" width="80" height="16"/>
	</g>
</g>
<g>
	<g>
		<rect x="296" y="32" width="16" height="16"/>
	</g>
</g>
<g>
	<g>
		<rect x="168" y="32" width="16" height="16"/>
	</g>
</g>
<g>
	<g>
		<rect x="136" y="32" width="16" height="16"/>
	</g>
</g>
<g>
</g>
<g>
</g>
<g>
</g>
<g>
</g>
<g>
</g>
<g>
</g>
<g>
</g>
<g>
</g>
<g>
</g>
<g>
</g>
<g>
</g>
<g>
</g>
<g>
</g>
<g>
</g>
<g>
</g>
</svg>
